<mxfile host="Electron" modified="2024-03-13T04:33:41.889Z" agent="Mozilla/5.0 (Windows NT 10.0; Win64; x64) AppleWebKit/537.36 (KHTML, like Gecko) draw.io/24.0.4 Chrome/120.0.6099.109 Electron/28.1.0 Safari/537.36" etag="iA1CccuK3Bx1DUHoXLgI" version="24.0.4" type="device">
  <diagram name="Страница — 1" id="K4H-Stnm3o599I1eEMln">
    <mxGraphModel dx="1098" dy="1997" grid="1" gridSize="10" guides="1" tooltips="1" connect="1" arrows="1" fold="1" page="1" pageScale="1" pageWidth="827" pageHeight="1169" math="0" shadow="0">
      <root>
        <mxCell id="0" />
        <mxCell id="1" parent="0" />
        <mxCell id="hxBWNhlIGGHsahwYfWpT-4" value="" style="ellipse;shape=cloud;whiteSpace=wrap;html=1;fillColor=#dae8fc;strokeColor=#6c8ebf;" vertex="1" parent="1">
          <mxGeometry x="1140" y="-80" width="850" height="930" as="geometry" />
        </mxCell>
        <mxCell id="hxBWNhlIGGHsahwYfWpT-8" value="&lt;font style=&quot;font-size: 18px;&quot;&gt;NetSocket&lt;/font&gt;" style="ellipse;whiteSpace=wrap;html=1;aspect=fixed;fillColor=#d5e8d4;strokeColor=#82b366;strokeWidth=2;" vertex="1" parent="1">
          <mxGeometry x="1210" y="157.5" width="95" height="95" as="geometry" />
        </mxCell>
        <mxCell id="hxBWNhlIGGHsahwYfWpT-23" value="" style="shape=actor;whiteSpace=wrap;html=1;strokeWidth=5;fillColor=#fad9d5;strokeColor=#ae4132;" vertex="1" parent="1">
          <mxGeometry x="20" y="330" width="110" height="145" as="geometry" />
        </mxCell>
        <mxCell id="hxBWNhlIGGHsahwYfWpT-28" value="" style="shape=actor;whiteSpace=wrap;html=1;strokeWidth=5;fillColor=#dae8fc;strokeColor=#6c8ebf;gradientColor=#7ea6e0;" vertex="1" parent="1">
          <mxGeometry x="3120" y="310" width="110" height="145" as="geometry" />
        </mxCell>
        <mxCell id="hxBWNhlIGGHsahwYfWpT-44" value="&lt;font style=&quot;font-size: 18px;&quot;&gt;Encoder&lt;/font&gt;" style="triangle;whiteSpace=wrap;html=1;strokeWidth=2;fillColor=#d5e8d4;strokeColor=#82b366;direction=west;" vertex="1" parent="1">
          <mxGeometry x="2380" y="550" width="120" height="110" as="geometry" />
        </mxCell>
        <mxCell id="hxBWNhlIGGHsahwYfWpT-46" value="&lt;font style=&quot;font-size: 18px;&quot;&gt;AEC&lt;/font&gt;" style="shape=process;whiteSpace=wrap;html=1;backgroundOutline=1;fillColor=#d5e8d4;strokeColor=#82b366;strokeWidth=2;" vertex="1" parent="1">
          <mxGeometry x="2600" y="550" width="160" height="110" as="geometry" />
        </mxCell>
        <mxCell id="hxBWNhlIGGHsahwYfWpT-50" value="&lt;font style=&quot;font-size: 18px;&quot;&gt;Microphone&lt;/font&gt;" style="ellipse;shape=doubleEllipse;whiteSpace=wrap;html=1;aspect=fixed;strokeWidth=2;fillColor=#d5e8d4;strokeColor=#82b366;" vertex="1" parent="1">
          <mxGeometry x="2920" y="545" width="120" height="120" as="geometry" />
        </mxCell>
        <mxCell id="hxBWNhlIGGHsahwYfWpT-52" value="" style="group" vertex="1" connectable="0" parent="1">
          <mxGeometry x="1840" y="130" width="1200" height="180" as="geometry" />
        </mxCell>
        <mxCell id="hxBWNhlIGGHsahwYfWpT-18" value="" style="edgeStyle=orthogonalEdgeStyle;rounded=0;orthogonalLoop=1;jettySize=auto;html=1;strokeWidth=2;" edge="1" parent="hxBWNhlIGGHsahwYfWpT-52" source="hxBWNhlIGGHsahwYfWpT-14" target="hxBWNhlIGGHsahwYfWpT-16">
          <mxGeometry relative="1" as="geometry" />
        </mxCell>
        <mxCell id="hxBWNhlIGGHsahwYfWpT-14" value="&lt;font style=&quot;font-size: 18px;&quot;&gt;NetSocket&lt;/font&gt;" style="ellipse;whiteSpace=wrap;html=1;aspect=fixed;fillColor=#fff2cc;strokeColor=#d6b656;strokeWidth=2;" vertex="1" parent="hxBWNhlIGGHsahwYfWpT-52">
          <mxGeometry y="37.5" width="95" height="95" as="geometry" />
        </mxCell>
        <mxCell id="hxBWNhlIGGHsahwYfWpT-21" value="" style="edgeStyle=orthogonalEdgeStyle;rounded=0;orthogonalLoop=1;jettySize=auto;html=1;strokeWidth=2;" edge="1" parent="hxBWNhlIGGHsahwYfWpT-52" source="hxBWNhlIGGHsahwYfWpT-15" target="hxBWNhlIGGHsahwYfWpT-20">
          <mxGeometry relative="1" as="geometry" />
        </mxCell>
        <mxCell id="hxBWNhlIGGHsahwYfWpT-15" value="&lt;font style=&quot;font-size: 18px;&quot;&gt;Decoder&lt;/font&gt;" style="triangle;whiteSpace=wrap;html=1;strokeWidth=2;fillColor=#fff2cc;strokeColor=#d6b656;" vertex="1" parent="hxBWNhlIGGHsahwYfWpT-52">
          <mxGeometry x="350" y="30" width="120" height="110" as="geometry" />
        </mxCell>
        <mxCell id="hxBWNhlIGGHsahwYfWpT-19" value="" style="edgeStyle=orthogonalEdgeStyle;rounded=0;orthogonalLoop=1;jettySize=auto;html=1;strokeWidth=2;" edge="1" parent="hxBWNhlIGGHsahwYfWpT-52" source="hxBWNhlIGGHsahwYfWpT-16" target="hxBWNhlIGGHsahwYfWpT-15">
          <mxGeometry relative="1" as="geometry" />
        </mxCell>
        <mxCell id="hxBWNhlIGGHsahwYfWpT-16" value="&lt;font style=&quot;font-size: 18px;&quot;&gt;Decryptor&lt;/font&gt;" style="shape=step;perimeter=stepPerimeter;whiteSpace=wrap;html=1;fixedSize=1;strokeWidth=2;fillColor=#fff2cc;strokeColor=#d6b656;" vertex="1" parent="hxBWNhlIGGHsahwYfWpT-52">
          <mxGeometry x="150" y="45" width="120" height="80" as="geometry" />
        </mxCell>
        <mxCell id="hxBWNhlIGGHsahwYfWpT-20" value="&lt;font style=&quot;font-size: 18px;&quot;&gt;JitterBuffer&lt;/font&gt;" style="shape=cylinder3;whiteSpace=wrap;html=1;boundedLbl=1;backgroundOutline=1;size=15;strokeWidth=2;fillColor=#fff2cc;strokeColor=#d6b656;" vertex="1" parent="hxBWNhlIGGHsahwYfWpT-52">
          <mxGeometry x="540" y="22.5" width="110" height="125" as="geometry" />
        </mxCell>
        <mxCell id="hxBWNhlIGGHsahwYfWpT-24" value="&lt;font style=&quot;font-size: 18px;&quot;&gt;AudioMixer&lt;/font&gt;" style="shape=sumEllipse;perimeter=ellipsePerimeter;whiteSpace=wrap;html=1;backgroundOutline=1;strokeWidth=2;fillColor=#bac8d3;strokeColor=#23445d;" vertex="1" parent="hxBWNhlIGGHsahwYfWpT-52">
          <mxGeometry x="750" width="180" height="180" as="geometry" />
        </mxCell>
        <mxCell id="hxBWNhlIGGHsahwYfWpT-26" value="" style="endArrow=classic;startArrow=classic;html=1;rounded=0;strokeWidth=2;" edge="1" parent="hxBWNhlIGGHsahwYfWpT-52" source="hxBWNhlIGGHsahwYfWpT-24" target="hxBWNhlIGGHsahwYfWpT-29">
          <mxGeometry width="50" height="50" relative="1" as="geometry">
            <mxPoint x="670" y="150" as="sourcePoint" />
            <mxPoint x="1030" y="86.04166666666652" as="targetPoint" />
          </mxGeometry>
        </mxCell>
        <mxCell id="hxBWNhlIGGHsahwYfWpT-27" value="" style="endArrow=classic;startArrow=classic;html=1;rounded=0;strokeWidth=2;" edge="1" parent="hxBWNhlIGGHsahwYfWpT-52" source="hxBWNhlIGGHsahwYfWpT-20" target="hxBWNhlIGGHsahwYfWpT-24">
          <mxGeometry width="50" height="50" relative="1" as="geometry">
            <mxPoint x="670" y="150" as="sourcePoint" />
            <mxPoint x="720" y="100" as="targetPoint" />
          </mxGeometry>
        </mxCell>
        <mxCell id="hxBWNhlIGGHsahwYfWpT-29" value="&lt;span style=&quot;text-wrap: nowrap;&quot;&gt;&lt;font style=&quot;font-size: 18px;&quot;&gt;SoundRenderer&lt;/font&gt;&lt;/span&gt;" style="shape=display;whiteSpace=wrap;html=1;strokeWidth=2;fillColor=#bac8d3;strokeColor=#23445d;" vertex="1" parent="hxBWNhlIGGHsahwYfWpT-52">
          <mxGeometry x="1040" y="42.5" width="160" height="85" as="geometry" />
        </mxCell>
        <mxCell id="hxBWNhlIGGHsahwYfWpT-53" value="" style="group" vertex="1" connectable="0" parent="1">
          <mxGeometry x="240" y="145" width="870" height="120" as="geometry" />
        </mxCell>
        <mxCell id="hxBWNhlIGGHsahwYfWpT-10" value="" style="edgeStyle=orthogonalEdgeStyle;rounded=0;orthogonalLoop=1;jettySize=auto;html=1;strokeWidth=2;" edge="1" parent="hxBWNhlIGGHsahwYfWpT-53" source="hxBWNhlIGGHsahwYfWpT-30" target="hxBWNhlIGGHsahwYfWpT-6">
          <mxGeometry relative="1" as="geometry">
            <mxPoint x="310" y="60" as="sourcePoint" />
          </mxGeometry>
        </mxCell>
        <mxCell id="hxBWNhlIGGHsahwYfWpT-12" value="" style="edgeStyle=orthogonalEdgeStyle;rounded=0;orthogonalLoop=1;jettySize=auto;html=1;strokeWidth=2;" edge="1" parent="hxBWNhlIGGHsahwYfWpT-53" source="hxBWNhlIGGHsahwYfWpT-5" target="hxBWNhlIGGHsahwYfWpT-7">
          <mxGeometry relative="1" as="geometry" />
        </mxCell>
        <mxCell id="hxBWNhlIGGHsahwYfWpT-5" value="&lt;font style=&quot;font-size: 18px;&quot;&gt;Encoder&lt;/font&gt;" style="triangle;whiteSpace=wrap;html=1;strokeWidth=2;fillColor=#d5e8d4;strokeColor=#82b366;" vertex="1" parent="hxBWNhlIGGHsahwYfWpT-53">
          <mxGeometry x="550" y="5" width="120" height="110" as="geometry" />
        </mxCell>
        <mxCell id="hxBWNhlIGGHsahwYfWpT-11" value="" style="edgeStyle=orthogonalEdgeStyle;rounded=0;orthogonalLoop=1;jettySize=auto;html=1;strokeWidth=2;" edge="1" parent="hxBWNhlIGGHsahwYfWpT-53" source="hxBWNhlIGGHsahwYfWpT-6" target="hxBWNhlIGGHsahwYfWpT-5">
          <mxGeometry relative="1" as="geometry" />
        </mxCell>
        <mxCell id="hxBWNhlIGGHsahwYfWpT-6" value="&lt;font style=&quot;font-size: 18px;&quot;&gt;AEC&lt;/font&gt;" style="shape=process;whiteSpace=wrap;html=1;backgroundOutline=1;fillColor=#d5e8d4;strokeColor=#82b366;strokeWidth=2;" vertex="1" parent="hxBWNhlIGGHsahwYfWpT-53">
          <mxGeometry x="270" y="5" width="160" height="110" as="geometry" />
        </mxCell>
        <mxCell id="hxBWNhlIGGHsahwYfWpT-13" value="" style="edgeStyle=orthogonalEdgeStyle;rounded=0;orthogonalLoop=1;jettySize=auto;html=1;strokeWidth=2;" edge="1" parent="hxBWNhlIGGHsahwYfWpT-53" source="hxBWNhlIGGHsahwYfWpT-7" target="hxBWNhlIGGHsahwYfWpT-8">
          <mxGeometry relative="1" as="geometry" />
        </mxCell>
        <mxCell id="hxBWNhlIGGHsahwYfWpT-7" value="&lt;font style=&quot;font-size: 18px;&quot;&gt;Ecnryptor&lt;/font&gt;" style="shape=step;perimeter=stepPerimeter;whiteSpace=wrap;html=1;fixedSize=1;strokeWidth=2;fillColor=#d5e8d4;strokeColor=#82b366;" vertex="1" parent="hxBWNhlIGGHsahwYfWpT-53">
          <mxGeometry x="750" y="20" width="120" height="80" as="geometry" />
        </mxCell>
        <mxCell id="hxBWNhlIGGHsahwYfWpT-30" value="&lt;font style=&quot;font-size: 18px;&quot;&gt;Microphone&lt;/font&gt;" style="ellipse;shape=doubleEllipse;whiteSpace=wrap;html=1;aspect=fixed;strokeWidth=2;fillColor=#d5e8d4;strokeColor=#82b366;" vertex="1" parent="hxBWNhlIGGHsahwYfWpT-53">
          <mxGeometry width="120" height="120" as="geometry" />
        </mxCell>
        <mxCell id="hxBWNhlIGGHsahwYfWpT-54" value="" style="group" vertex="1" connectable="0" parent="1">
          <mxGeometry x="240" y="515" width="1061" height="180" as="geometry" />
        </mxCell>
        <mxCell id="hxBWNhlIGGHsahwYfWpT-37" value="" style="edgeStyle=orthogonalEdgeStyle;rounded=0;orthogonalLoop=1;jettySize=auto;html=1;strokeWidth=2;" edge="1" parent="hxBWNhlIGGHsahwYfWpT-54" source="hxBWNhlIGGHsahwYfWpT-31" target="hxBWNhlIGGHsahwYfWpT-33">
          <mxGeometry relative="1" as="geometry" />
        </mxCell>
        <mxCell id="hxBWNhlIGGHsahwYfWpT-31" value="&lt;font style=&quot;font-size: 18px;&quot;&gt;NetSocket&lt;/font&gt;" style="ellipse;whiteSpace=wrap;html=1;aspect=fixed;fillColor=#fff2cc;strokeColor=#d6b656;strokeWidth=2;" vertex="1" parent="hxBWNhlIGGHsahwYfWpT-54">
          <mxGeometry x="961" y="40" width="100" height="100" as="geometry" />
        </mxCell>
        <mxCell id="hxBWNhlIGGHsahwYfWpT-39" value="" style="edgeStyle=orthogonalEdgeStyle;rounded=0;orthogonalLoop=1;jettySize=auto;html=1;strokeWidth=2;" edge="1" parent="hxBWNhlIGGHsahwYfWpT-54" source="hxBWNhlIGGHsahwYfWpT-32" target="hxBWNhlIGGHsahwYfWpT-34">
          <mxGeometry relative="1" as="geometry" />
        </mxCell>
        <mxCell id="hxBWNhlIGGHsahwYfWpT-32" value="&lt;font style=&quot;font-size: 18px;&quot;&gt;Decoder&lt;/font&gt;" style="triangle;whiteSpace=wrap;html=1;strokeWidth=2;fillColor=#fff2cc;strokeColor=#d6b656;direction=west;" vertex="1" parent="hxBWNhlIGGHsahwYfWpT-54">
          <mxGeometry x="640" y="35" width="120" height="110" as="geometry" />
        </mxCell>
        <mxCell id="hxBWNhlIGGHsahwYfWpT-38" value="" style="edgeStyle=orthogonalEdgeStyle;rounded=0;orthogonalLoop=1;jettySize=auto;html=1;strokeWidth=2;" edge="1" parent="hxBWNhlIGGHsahwYfWpT-54" source="hxBWNhlIGGHsahwYfWpT-33" target="hxBWNhlIGGHsahwYfWpT-32">
          <mxGeometry relative="1" as="geometry" />
        </mxCell>
        <mxCell id="hxBWNhlIGGHsahwYfWpT-33" value="&lt;font style=&quot;font-size: 18px;&quot;&gt;Decryptor&lt;/font&gt;" style="shape=step;perimeter=stepPerimeter;whiteSpace=wrap;html=1;fixedSize=1;strokeWidth=2;fillColor=#fff2cc;strokeColor=#d6b656;direction=west;" vertex="1" parent="hxBWNhlIGGHsahwYfWpT-54">
          <mxGeometry x="810" y="50" width="120" height="80" as="geometry" />
        </mxCell>
        <mxCell id="hxBWNhlIGGHsahwYfWpT-40" value="" style="edgeStyle=orthogonalEdgeStyle;rounded=0;orthogonalLoop=1;jettySize=auto;html=1;startArrow=classic;startFill=1;strokeWidth=2;" edge="1" parent="hxBWNhlIGGHsahwYfWpT-54" source="hxBWNhlIGGHsahwYfWpT-34" target="hxBWNhlIGGHsahwYfWpT-35">
          <mxGeometry relative="1" as="geometry" />
        </mxCell>
        <mxCell id="hxBWNhlIGGHsahwYfWpT-34" value="&lt;font style=&quot;font-size: 18px;&quot;&gt;JitterBuffer&lt;/font&gt;" style="shape=cylinder3;whiteSpace=wrap;html=1;boundedLbl=1;backgroundOutline=1;size=15;strokeWidth=2;fillColor=#fff2cc;strokeColor=#d6b656;" vertex="1" parent="hxBWNhlIGGHsahwYfWpT-54">
          <mxGeometry x="477" y="27.5" width="110" height="125" as="geometry" />
        </mxCell>
        <mxCell id="hxBWNhlIGGHsahwYfWpT-41" value="" style="edgeStyle=orthogonalEdgeStyle;rounded=0;orthogonalLoop=1;jettySize=auto;html=1;startArrow=classic;startFill=1;strokeWidth=2;" edge="1" parent="hxBWNhlIGGHsahwYfWpT-54" source="hxBWNhlIGGHsahwYfWpT-35" target="hxBWNhlIGGHsahwYfWpT-36">
          <mxGeometry relative="1" as="geometry" />
        </mxCell>
        <mxCell id="hxBWNhlIGGHsahwYfWpT-35" value="&lt;font style=&quot;font-size: 18px;&quot;&gt;AudioMixer&lt;/font&gt;" style="shape=sumEllipse;perimeter=ellipsePerimeter;whiteSpace=wrap;html=1;backgroundOutline=1;strokeWidth=2;fillColor=#bac8d3;strokeColor=#23445d;" vertex="1" parent="hxBWNhlIGGHsahwYfWpT-54">
          <mxGeometry x="210" width="180" height="180" as="geometry" />
        </mxCell>
        <mxCell id="hxBWNhlIGGHsahwYfWpT-36" value="&lt;span style=&quot;text-wrap: nowrap;&quot;&gt;&lt;font style=&quot;font-size: 18px;&quot;&gt;SoundRenderer&lt;/font&gt;&lt;/span&gt;" style="shape=display;whiteSpace=wrap;html=1;strokeWidth=2;fillColor=#bac8d3;strokeColor=#23445d;direction=west;" vertex="1" parent="hxBWNhlIGGHsahwYfWpT-54">
          <mxGeometry y="47.5" width="160" height="85" as="geometry" />
        </mxCell>
        <mxCell id="hxBWNhlIGGHsahwYfWpT-55" value="" style="group" vertex="1" connectable="0" parent="1">
          <mxGeometry x="1900" y="565" width="350" height="100" as="geometry" />
        </mxCell>
        <mxCell id="hxBWNhlIGGHsahwYfWpT-42" value="" style="edgeStyle=orthogonalEdgeStyle;rounded=0;orthogonalLoop=1;jettySize=auto;html=1;strokeWidth=2;" edge="1" parent="hxBWNhlIGGHsahwYfWpT-55" source="hxBWNhlIGGHsahwYfWpT-50" target="hxBWNhlIGGHsahwYfWpT-46">
          <mxGeometry relative="1" as="geometry">
            <mxPoint x="240" y="-82.5" as="sourcePoint" />
          </mxGeometry>
        </mxCell>
        <mxCell id="hxBWNhlIGGHsahwYfWpT-43" value="" style="edgeStyle=orthogonalEdgeStyle;rounded=0;orthogonalLoop=1;jettySize=auto;html=1;strokeWidth=2;" edge="1" parent="hxBWNhlIGGHsahwYfWpT-55" source="hxBWNhlIGGHsahwYfWpT-44" target="hxBWNhlIGGHsahwYfWpT-48">
          <mxGeometry relative="1" as="geometry" />
        </mxCell>
        <mxCell id="hxBWNhlIGGHsahwYfWpT-45" value="" style="edgeStyle=orthogonalEdgeStyle;rounded=0;orthogonalLoop=1;jettySize=auto;html=1;strokeWidth=2;" edge="1" parent="hxBWNhlIGGHsahwYfWpT-55" source="hxBWNhlIGGHsahwYfWpT-46" target="hxBWNhlIGGHsahwYfWpT-44">
          <mxGeometry relative="1" as="geometry" />
        </mxCell>
        <mxCell id="hxBWNhlIGGHsahwYfWpT-47" value="" style="edgeStyle=orthogonalEdgeStyle;rounded=0;orthogonalLoop=1;jettySize=auto;html=1;strokeWidth=2;" edge="1" parent="hxBWNhlIGGHsahwYfWpT-55" source="hxBWNhlIGGHsahwYfWpT-48" target="hxBWNhlIGGHsahwYfWpT-49">
          <mxGeometry relative="1" as="geometry" />
        </mxCell>
        <mxCell id="hxBWNhlIGGHsahwYfWpT-48" value="&lt;font style=&quot;font-size: 18px;&quot;&gt;Ecnryptor&lt;/font&gt;" style="shape=step;perimeter=stepPerimeter;whiteSpace=wrap;html=1;fixedSize=1;strokeWidth=2;fillColor=#d5e8d4;strokeColor=#82b366;direction=west;" vertex="1" parent="hxBWNhlIGGHsahwYfWpT-55">
          <mxGeometry x="230" width="120" height="80" as="geometry" />
        </mxCell>
        <mxCell id="hxBWNhlIGGHsahwYfWpT-49" value="&lt;font style=&quot;font-size: 18px;&quot;&gt;NetSocket&lt;/font&gt;" style="ellipse;whiteSpace=wrap;html=1;aspect=fixed;fillColor=#d5e8d4;strokeColor=#82b366;strokeWidth=2;" vertex="1" parent="hxBWNhlIGGHsahwYfWpT-55">
          <mxGeometry x="-10" y="-10" width="100" height="100" as="geometry" />
        </mxCell>
        <mxCell id="hxBWNhlIGGHsahwYfWpT-56" value="" style="curved=1;endArrow=classic;html=1;rounded=0;strokeWidth=2;" edge="1" parent="1" source="hxBWNhlIGGHsahwYfWpT-29" target="hxBWNhlIGGHsahwYfWpT-46">
          <mxGeometry width="50" height="50" relative="1" as="geometry">
            <mxPoint x="2700" y="470" as="sourcePoint" />
            <mxPoint x="2750" y="420" as="targetPoint" />
            <Array as="points">
              <mxPoint x="2980" y="360" />
              <mxPoint x="2690" y="470" />
            </Array>
          </mxGeometry>
        </mxCell>
        <mxCell id="hxBWNhlIGGHsahwYfWpT-57" value="" style="curved=1;endArrow=classic;html=1;rounded=0;strokeWidth=2;" edge="1" parent="1" source="hxBWNhlIGGHsahwYfWpT-36" target="hxBWNhlIGGHsahwYfWpT-6">
          <mxGeometry width="50" height="50" relative="1" as="geometry">
            <mxPoint x="600" y="470" as="sourcePoint" />
            <mxPoint x="650" y="420" as="targetPoint" />
            <Array as="points">
              <mxPoint x="330" y="440" />
              <mxPoint x="590" y="370" />
            </Array>
          </mxGeometry>
        </mxCell>
      </root>
    </mxGraphModel>
  </diagram>
</mxfile>
